Patient4_TMGait_0pt3_03_right_09_EMG.mot
version=1
nRows=33
nColumns=33
inDegrees=no
endheader
time	1LAddLong	2LGlutMax	3LGlutMed	4LIliopsoas	5LSemiMemb	6LBicFemLong	7LRecFem	8LVastMed	9LVastLat	10LGasMed	11LTibAnt	12lTibPost	13LPeroneusLong	14LSol	15LExtDigLong	16LFlexDigLong	17RAddLong	18RGlutMax	19RGlutMed	20RIliopsoas	21RSemiMemb	22RBicFemLong	23RRecFem	24RVastMed	25RVastLat	26RGasMed	27RTibAnt	28RTibPost	29RPeroneusLong	30RSol	31RExtDigLong	32RFlexDigLong
17.712	0.016632	-0.11581	0.036469	0.033875	0.032043	-0.030823	0.045776	0.005341	0.001526	-0.003662	-0.003204	0.010071	-0.000458	0.026398	0.005798	-0.000153	-0.058899	0.46539	0.1886	-0.12741	-0.011292	-0.1387	0.014343	0.073395	0.1709	0.010986	0.062714	-0.018005	-0.008545	-0.20462	0.002594	-0.012207
17.713	0.013428	-0.13931	0.041199	0.009918	0.004425	0.10086	0.048523	0.005493	-0.02121	0.00473	0.00351	0.009003	-0.00061	0.02594	-0.02243	-0.005646	0.000153	0.55847	0.079346	-0.054626	-0.041656	-0.36026	0.10269	0.084534	0.20157	-0.023499	0.03952	-0.023956	0.23972	-0.2272	-0.004425	-0.003052
17.714	0.004578	-0.10849	0.057526	0.003357	-0.007629	0.11322	0.059967	0.008698	-0.00824	0.004883	0.063019	0.009003	-0.002441	0.028992	0.44891	0	-0.02243	0.71686	0.13779	-0.029297	-0.2002	-0.31525	0.10147	0.062103	0.19836	-0.034027	-0.19684	-0.027618	-0.06546	-0.18219	-0.002441	-0.005493
17.715	-0.000153	-0.14008	0.049744	0.014954	0.090485	0.03418	0.037994	0.003815	0.003357	0.007324	0.13596	0.004272	-0.021057	0.02243	0.02594	-0.008698	-0.036469	0.79392	0.028229	-0.079803	-0.077515	-0.4628	0.12009	0.10239	0.24231	-0.066223	-0.1181	0.016937	-1.0202	-0.11185	-0.005341	-0.013733
17.716	-0.002136	-0.17349	0.060425	0.009308	0.050964	-0.002136	0.038605	0.00946	0.01358	0.020599	0.14816	0.006866	-0.020447	0.020752	0.10147	0.006714	-0.039368	0.92102	0.075226	-0.056915	0.15579	-0.58594	0.12756	-0.001984	0.19562	-0.077515	0.02533	0.052795	-2.0354	0.079651	-0.004272	-0.005188
17.717	-0.002594	-0.17532	0.039215	0.002441	0.022888	-0.000153	0.034027	0.004883	0.007629	0.001373	0.06012	0.008087	0.008087	0.031128	-0.11673	0.016174	0.010376	0.82306	0.22903	0.031433	0.24933	-0.38223	0.21179	-0.077972	0.015259	-0.041504	-0.054016	-0.009613	-0.38589	0.06546	-0.004578	-0.005951
17.718	0.00412	-0.17761	0.03067	-0.005798	0.034027	-0.000153	0.03479	0.005188	0.014801	-0.00473	-0.048981	0.005646	0.007019	0.013275	-0.23438	0.005341	0.051727	0.84946	0.30685	0.15625	0.11444	-0.053711	0.23377	-0.031586	-0.36118	-0.080719	0.021362	-0.009155	0.03952	0.029297	-0.000763	-0.014191
17.719	0.010376	-0.19165	0.055389	-0.007172	0.030518	0.023651	0.040131	0.003204	0.021057	0.001221	-0.13351	0.003052	0.013428	0.004425	-0.024261	0.018616	0.007629	0.77774	0.45151	0.19394	-0.054779	0.12497	0.24811	0.010376	-0.38574	-0.12116	-0.12497	0.005188	0.49606	0.13977	-0.001984	-0.010376
17.72	0.009613	-0.1976	0.049744	0.004272	0.058441	0.058746	0.02121	0	0.030212	-0.002441	-0.12833	0.008087	0.010071	-0.012817	-0.1004	0.005341	-0.024567	0.7489	0.30838	0.11871	-0.21866	0.19898	0.27023	-0.011902	-0.18753	-0.040131	-0.067902	-0.032196	-0.041046	0.45593	-0.001221	-0.010681
17.721	-0.007477	-0.19119	0.045166	-0.010376	0.058746	0.048676	0.036011	0.000153	0.034637	-0.007935	-0.077972	0.003204	0.000916	-0.03418	-0.14664	0.005035	-0.014038	0.62271	0.017395	-0.007019	-0.13138	0.3685	0.30273	0.014496	-0.087585	0.14191	0.13641	-0.044098	0.85358	0.42358	-0.001068	-0.007324
17.722	0.004883	-0.21591	0.028534	-0.003967	0.033875	0.016479	0.030518	0.005341	0.038452	0.002899	-0.027466	0.004578	-0.019226	-0.031586	-0.099487	0.011139	0.040283	0.52445	-0.24384	-0.034332	0.026855	0.45364	0.34805	-0.059509	-0.073853	0.078583	0.028076	0.016937	2.9793	0.060272	-0.011902	0.001526
17.723	-0.002136	-0.22308	0.056763	0.011749	0.012512	-0.015259	0.023041	-0.001678	0.050201	0.006409	-0.014496	-0.004425	-0.02533	0.018158	-0.029449	0.009918	0.083466	0.3537	-0.22476	-0.075378	-0.001678	0.43976	0.20325	-0.01297	-0.081635	0.10712	-0.20737	0.036621	1.1304	-0.052185	-0.008698	0.002899
17.724	-0.00473	-0.20172	0.067291	-0.026855	0.012665	0.001221	0.01709	0.000763	0.038452	0.005341	-0.012512	0.00412	-0.001373	0.045929	0.007629	0.017853	0.11246	0.22034	-0.24033	-0.16174	-0.27878	0.22125	0.030823	-0.05127	-0.12039	0.03418	-0.18494	0.015411	2.2726	-0.32105	-0.007324	0.009003
17.725	0.000305	-0.20813	0.050964	0.009308	0.001678	0.001526	0.000305	0.001373	0.033264	0.007172	-0.008698	0.006256	0.031586	0.00946	0.006409	0.00824	0.045929	0.11154	-0.29343	-0.13229	-0.54993	0.013123	-0.11704	-0.027008	-0.10544	0.008087	-0.03418	-0.001831	0.21027	-0.29938	-0.00473	0.006409
17.726	-0.001373	-0.21606	0.046082	0.015564	0.006714	0.007782	0.019684	-0.006409	0.043335	0.008545	-0.013733	0.006256	0.002441	0.006561	0.026703	0.016632	-0.070953	0.12833	-0.27939	-0.010834	-0.401	0.12222	-0.25971	0.000916	-0.011597	0.006409	-0.05127	-0.009613	-1.2415	-0.1207	-0.003967	-0.005493
17.727	-0.005798	-0.24094	0.03418	0.019836	0.002289	0.015564	0.006409	0.002289	0.039825	0.008392	0.002136	0.012512	-0.01709	0.015869	0.036316	0.023193	-0.10986	0.19836	-0.20172	0.13809	-0.35049	0.15839	-0.24979	0.002441	0.036163	0.022736	0.10391	0.000153	-0.45517	-0.18555	-0.002441	-0.016632
17.728	-0.007782	-0.28107	0.064392	0.024567	-0.00946	0.010223	0.019684	0.006409	0.045013	0.015564	0.006561	0.00351	-0.005951	0.007172	0.037231	0.018768	-0.057068	0.18478	-0.43015	0.28305	0.076294	0.054626	-0.10346	0.080566	0.065308	0.040588	-0.012512	-0.00412	-0.16052	-0.17639	-0.001373	0.002136
17.729	-0.007172	-0.27649	0.053406	0.020447	-0.013123	-0.011902	0.011139	0.00351	0.05188	0.019073	-0.003204	0.007019	0.023346	-0.02594	0.006714	0.027313	-0.015411	0.22827	-0.31418	0.35187	0.31921	0.055084	-0.052948	0.00885	0.062103	0.033112	-0.31128	-0.009155	-0.61035	-0.24277	-0.007477	-0.006714
17.73	-0.002441	-0.31174	0.058899	0.011749	-0.009918	-0.015564	0.030975	0.00412	0.043335	0.048676	-0.005035	0.001526	-0.025635	-0.032043	-0.009155	0.011444	-0.013733	0.20172	0.068207	0.30899	0.04364	0.079041	-0.043182	0.023193	0.066681	0.012817	-0.20355	-0.020294	-1.4468	-0.21957	-0.002747	-0.001831
17.731	-0.004425	-0.27725	0.053406	0.004272	-0.016327	-0.010529	0.018616	0.001984	0.055084	0.049896	-0.006561	-0.006561	-0.03891	-0.016174	0.000916	0.014954	-0.011597	0.24216	0.011749	0.13534	-0.019836	0.22537	0.005798	-0.06546	0.002594	0.010376	-0.11169	-0.030975	-1.6322	0.062256	0.000305	-0.004883
17.732	-0.005493	-0.29678	0.072937	0.009918	-0.018158	-0.021515	0.0177	0.006866	0.06134	0.031128	-0.006256	-0.00473	-0.056458	0.006256	0.02243	0.021667	0.011292	0.26504	0.25894	-0.019379	0.027771	0.30533	-0.010223	-0.044403	-0.040131	0.006866	0.096893	-0.03479	-1.3892	0.20203	-0.001678	-0.016479
17.733	-0.00473	-0.31357	0.06134	0.003357	-0.015106	-0.035248	0.02182	0.007629	0.076141	0.026245	-0.003357	-0.006866	-0.059052	0.016327	0.016022	0.018158	0.048981	0.34561	0.68924	-0.02655	0.19531	0.20706	0.017548	-0.072937	-0.034027	-0.00473	0.001526	0.032654	-0.20035	0.24231	0.000153	-0.012207
17.734	-0.020752	-0.25345	0.048981	0.019379	-0.016022	-0.014343	-0.001221	0	0.07431	0.028381	-0.008087	-0.000763	-0.035706	0.13962	0.010529	0.028381	0.073853	0.35339	0.27527	-0.009613	0.17761	-0.014191	0.027618	-0.20889	0.005035	0.002594	-0.092773	0.046692	1.9456	0.008392	-0.002136	-0.016479
17.735	-0.019836	-0.30975	0.061493	0.003967	-0.024414	0.033417	0.003815	0.016479	0.086517	0.045471	-0.00351	-0.010681	-0.032196	0.00473	-0.006561	0.027771	0.084534	0.37781	0.012207	0.016327	0.14572	-0.24567	0.11841	-0.29953	0.095825	0.00473	-0.028229	0.002289	1.8449	-0.1831	-0.000458	-0.005188
17.736	-0.00946	-0.31586	0.054474	0.019836	-0.033417	0.089264	-0.015411	-0.002594	0.09552	0.046387	-0.005188	0.006409	-0.026398	-0.23926	0.00351	0.017242	0.049896	0.38391	-0.062866	0.002289	-0.19287	-0.13458	0.14145	-0.15839	0.11383	-0.005951	0.041504	-0.001373	0.032043	-0.2063	-0.00061	-0.010223
17.737	-0.000763	-0.25421	0.03006	-0.000153	-0.046997	0.081482	-0.011749	0.003815	0.10986	0.033417	-0.008698	0.011597	-0.006866	-0.39658	0.060272	0.010986	-0.031891	0.29892	0.11444	-0.014801	-0.58334	-0.13489	0.14816	0.10742	0.10788	-0.004272	-0.055237	-0.001526	1.4107	-0.084076	-0.000305	-0.001068
17.738	-0.00412	-0.27008	0.056458	0.01358	-0.05249	0.086365	-0.019379	-0.00351	0.094452	0.011139	-0.005951	0.005188	-0.035706	-0.33691	0.06424	0.006866	-0.038147	0.24399	0.35553	-0.051575	-0.14954	0.054169	0.14145	0.14999	0.019684	0.015259	-0.31281	-0.007019	0.58991	-0.056915	-0.005188	-0.00824
17.739	0.001068	-0.26276	0.050049	0.023499	-0.044403	-0.030365	-0.013123	-0.001221	0.10071	-0.01358	-0.000153	0.004425	-0.051727	-0.1178	0.063171	-0.009155	-0.069427	0.2095	0.44296	-0.096283	0.002441	0.24948	0.13641	0.29999	0.04425	0.008087	-0.031738	-0.007019	-1.6946	0.072327	-0.009003	-0.007477
17.74	0.014496	-0.2713	0.071564	0.001831	0.013733	-0.16419	0.001526	-0.001831	0.10101	-0.014343	-0.003815	-0.000763	-0.077209	-0.01358	0.00351	-0.012665	-0.083923	0.12634	0.11505	-0.086517	-0.045471	0.14923	0.12482	0.26932	0.00473	-0.000305	0.097046	-0.00412	-0.68634	0.022736	-0.003662	-0.006104
17.741	0.021973	-0.22339	0.060272	0.011597	0.014191	-0.15823	0.000916	-0.00061	0.097198	-0.018921	0.000305	-0.00351	-0.076752	-0.021362	-0.000305	-0.016327	-0.067444	0.083313	-0.28778	-0.047455	-0.057678	0.076752	0.023804	0.27374	-0.084381	-0.002899	0.11932	-0.005798	0.18295	0.092773	-0.001984	-0.015411
17.742	0.01709	-0.22797	0.042419	-0.001373	0.019989	-0.11734	0.030823	0.001984	0.078278	-0.027466	0.002594	0.005188	-0.08194	0.068665	-0.011139	0.001831	-0.004883	-0.016632	-0.21118	-0.072021	0.19959	0.05722	0.041351	0.23529	-0.1062	0.000458	0.003204	-0.002594	-0.017548	0.12665	0.00824	-0.016327
17.743	0.01297	-0.23239	0.039978	0.005646	0.045929	-0.086517	0.020294	0.001373	0.070343	-0.022583	0.007782	0.007935	-0.065002	0.11551	-0.015259	-0.005493	0.007324	-0.13519	0.070038	-0.081482	0.12405	0.10635	0.050201	0.19379	-0.072327	-0.022125	-0.072784	-0.001984	-0.56519	0.075226	-0.003357	-0.01297
17.744	0.005341	-0.26474	0.067139	-0.002441	0.039368	-0.013275	0.032043	0.002289	0.059662	-0.007324	0.008392	0.001831	-0.078125	0.14114	-0.012665	-0.005798	-0.010071	-0.22507	-0.067749	-0.06485	0.037689	0.012207	-0.026093	0.049591	-0.045013	-0.024109	-0.063782	-0.008392	-0.88058	0.023193	0.000763	-0.013123
